<svg xmlns="http://www.w3.org/2000/svg" viewBox="0 0 720 400" font-family="'DM Sans', Arial, sans-serif">
  <rect x="0.5" y="0.5" width="719" height="399" rx="12" fill="#fffdf8"/>
  <line x1="210" y1="1" x2="210" y2="399" stroke="#d5cebf" stroke-width="1"/>
  <line x1="500" y1="1" x2="500" y2="399" stroke="#d5cebf" stroke-width="1"/>

  <g font-size="11" fill="#6b7f78">
    <text x="24" y="28">Tasks + inbox</text>
    <text x="230" y="28">Focused session</text>
    <text x="520" y="28">Artifacts</text>
  </g>

  <rect x="12" y="202" width="186" height="20" rx="4" fill="#ebe6da"/>
  <rect x="12" y="202" width="3" height="20" fill="#e6522c"/>

  <g fill="none" stroke="#6b7f78" stroke-width="1">
    <path d="M30 101 V152 M30 112 H40 M30 132 H40 M30 152 H40"/>
    <path d="M50 161 V192 M50 172 H60 M50 192 H60"/>
    <path d="M30 241 V252 H40"/>
  </g>

  <g font-size="13" fill="#183f38">
    <text x="24" y="56">Chief of Staff</text>
    <text x="24" y="76">Growth</text>
    <text x="24" y="96">Release health</text>
    <text x="44" y="116">Subscriptions</text>
    <text x="44" y="136">Today's performance</text>
    <text x="44" y="156">Analytics</text>
    <text x="64" y="176">Mobile analytics</text>
    <text x="64" y="196">Desktop analytics</text>
    <text x="24" y="216">Where are we going?</text>
    <text x="24" y="236">Auth issues</text>
    <text x="44" y="256">Intermittent 401s</text>
  </g>

  <text x="24" y="292" font-size="11" fill="#6b7f78">Inbox</text>
  <g font-size="13" fill="#183f38">
    <text x="24" y="314">Denis: review Files PR</text>
    <text x="24" y="334">Maria: onboarding bugs</text>
  </g>

  <g fill="#e7e4d8">
    <rect x="230" y="48" width="180" height="36" rx="10"/>
    <rect x="290" y="98" width="190" height="28" rx="10"/>
    <rect x="230" y="140" width="210" height="60" rx="10"/>
    <rect x="310" y="214" width="170" height="28" rx="10"/>
  </g>
  <rect x="230.5" y="332.5" width="249" height="44" rx="10" fill="#fffdf8" stroke="#d5cebf" stroke-width="1"/>
  <rect x="246" y="351" width="110" height="8" rx="4" fill="#e7e4d8"/>

  <rect x="520.5" y="48.5" width="179" height="200" rx="8" fill="#fffdf8" stroke="#d5cebf" stroke-width="1"/>
  <rect x="536" y="66" width="110" height="10" rx="5" fill="#d5cebf"/>
  <g fill="#e7e4d8">
    <rect x="536" y="94" width="148" height="7" rx="3.5"/>
    <rect x="536" y="110" width="136" height="7" rx="3.5"/>
    <rect x="536" y="126" width="144" height="7" rx="3.5"/>
    <rect x="536" y="142" width="96" height="7" rx="3.5"/>
    <rect x="536" y="166" width="148" height="7" rx="3.5"/>
    <rect x="536" y="182" width="128" height="7" rx="3.5"/>
    <rect x="536" y="198" width="80" height="7" rx="3.5"/>
  </g>
</svg>
